<?xml version="1.0" encoding="UTF-8" standalone="no"?>
<svg
   viewBox="0 0 140 40"
   fill="#cfcec4"
   version="1.1"
   id="svg5"
   sodipodi:docname="logo-name.svg"
   inkscape:version="1.4.3 (0d15f75042, 2025-12-25)"
   width="140"
   height="40"
   xmlns:inkscape="http://www.inkscape.org/namespaces/inkscape"
   xmlns:sodipodi="http://sodipodi.sourceforge.net/DTD/sodipodi-0.dtd"
   xmlns="http://www.w3.org/2000/svg"
   xmlns:svg="http://www.w3.org/2000/svg">
  <defs
     id="defs5" />
  <sodipodi:namedview
     id="namedview5"
     pagecolor="#ffffff"
     bordercolor="#000000"
     borderopacity="0.25"
     inkscape:showpageshadow="2"
     inkscape:pageopacity="0.0"
     inkscape:pagecheckerboard="0"
     inkscape:deskcolor="#d1d1d1"
     inkscape:zoom="2.8761568"
     inkscape:cx="60.149711"
     inkscape:cy="58.41128"
     inkscape:window-width="1728"
     inkscape:window-height="1011"
     inkscape:window-x="0"
     inkscape:window-y="0"
     inkscape:window-maximized="1"
     inkscape:current-layer="svg5"
     inkscape:clip-to-page="true" />
  <!-- Hand icon (simplified from logo.svg) -->
  <g
     transform="matrix(0.01437738,0,0,0.01437738,-4.5177737,-14.128609)"
     id="g5">
    <path
       d="m 1636.974,3447.6321 c -57.5745,-16.8885 -128.9667,-52.9685 -180.3998,-92.1191 -100.5279,-94.3216 -103.634,-97.4926 -103.634,-97.4926 -20.7269,-23.0299 -44.5243,-49.1304 -53.7361,-58.3423 -30.2712,-40.3263 -42.7719,-58.2965 -82.9071,-113.6134 -68.3217,-98.2604 -181.1676,-212.6416 -272.51898,-274.0542 -90.58374,-61.4127 -103.63395,-73.6952 -103.63395,-98.2605 0,-29.9386 24.56508,-57.5742 72.92759,-80.6041 36.84763,-18.4237 49.13018,-20.7267 102.09864,-18.4237 52.9685,3.0706 66.0187,6.1412 103.634,29.9386 23.7974,14.5855 70.6244,53.7361 104.4015,87.5131 49.8979,49.1302 62.948,57.5745 66.7864,46.8272 5.3735,-13.8177 -0.7676,-45.2918 -86.7455,-414.5357 -31.474,-135.108 -59.1097,-270.2161 -61.4127,-299.3871 -3.8383,-51.4331 -9.3274,-58.1153 11.3993,-82.6806 23.9945,-38.9285 130.991,-44.1784 147.765,-27.8344 23.4273,8.4487 43.4976,36.0522 59.6185,101.3031 11.7922,49.2871 11.2654,51.0037 18.0463,88.7339 2.3084,12.8445 5.7511,11.0619 21.1043,80.1511 9.9797,42.989 26.1004,114.3812 36.8478,158.9053 18.4236,80.6044 37.6151,165.0467 45.2917,198.0561 1.5354,9.2119 7.6765,16.8885 13.8179,16.8885 12.2825,0 50.6655,-34.5446 50.6655,-45.292 0,-10.7471 -51.4331,-247.1859 -56.8069,-261.7715 -2.3029,-6.1413 -16.1207,-67.554 -30.7062,-136.6434 -14.1933,-61.7123 -23.9214,-123.6815 -40.6859,-182.7028 l -13.818,-56.039 c -10.7471,-46.0596 -12.2825,-61.4127 -4.6059,-85.9777 12.2827,-39.9184 51.4333,-69.8571 99.028,-74.463 32.2418,-3.0706 40.686,0 70.6246,23.0296 41.4536,31.4741 29.9388,-10.7471 170.4202,604.9152 7.6768,36.08 19.1915,69.857 25.3329,75.9984 14.5855,15.3531 48.3625,4.606 53.7361,-16.8885 3.8384,-15.3533 -18.4239,-122.0577 -100.5632,-472.1104 -17.6563,-75.2305 -25.3329,-125.1282 -22.2623,-139.7138 21.4945,-98.2604 165.8144,-115.9165 205.7326,-25.3328 15.3533,33.777 79.8366,303.2253 128.9667,535.8259 26.868,124.3607 26.868,125.1285 58.342,133.5727 31.4741,9.2119 40.686,6.1414 40.686,-13.8179 0,-13.0502 -33.777,-166.5819 -73.6952,-334.6991 -11.5149,-46.0596 -22.262,-105.937 -23.7974,-132.8051 -3.8384,-47.5949 -3.8384,-47.5949 26.868,-78.3011 26.1005,-26.1005 35.3124,-30.7065 63.7157,-30.7065 36.08,0 77.5335,19.9591 89.816,43.7566 4.606,7.6765 16.8886,52.2007 28.4035,98.2602 13.6241,14.7213 60.5545,272.834 61.4126,277.1251 2.303,8.4441 9.212,33.7768 15.3534,56.8066 6.1411,23.0297 34.5446,140.4816 62.9478,261.004 46.8273,201.1266 50.6655,225.6917 51.4333,307.0636 0.7676,136.6432 -27.6358,221.0858 -103.634,310.1343 -89.0485,104.4016 -180.3998,156.6023 -344.6789,197.2882 -83.6747,20.7267 -291.7103,27.6357 -346.9818,11.515 z"
       id="path1" />
    <path
       d="m 2541.2763,2931.7652 c -2.303,-6.909 -4.606,-28.4034 -4.606,-48.3625 0,-34.5446 2.303,-38.383 50.6655,-85.2101 77.5334,-75.2306 132.0373,-163.5113 187.3088,-303.2253 53.7361,-135.8757 95.1896,-201.8943 188.8439,-305.5283 29.9388,-33.0092 59.8775,-69.0892 65.251,-79.8363 9.9796,-17.6563 8.4444,-20.7269 -17.6561,-44.5244 -56.0391,-51.4331 -131.2696,-52.2007 -205.7326,-3.0706 -42.2212,29.1711 -54.5037,42.989 -107.4722,128.1991 -26.1005,42.2212 -34.5446,48.3625 -41.4536,26.8681 -2.3029,-7.6766 -3.8383,-151.9966 -3.8383,-321.6492 0.7678,-351.5876 0.7678,-350.82 -59.1097,-379.9911 -29.171,-13.8179 -36.08,-14.5855 -64.4834,-6.1413 -20.7267,6.1413 -39.1506,19.1915 -52.2007,36.8478 l -20.7269,26.1002 -3.8382,267.1453 c -2.303,146.623 -6.1414,268.6807 -9.212,271.7513 -5.3735,6.1413 -37.6151,-9.9796 -46.0595,-22.2621 -3.0706,-4.606 -6.1412,-145.8552 -6.1412,-313.9724 0,-337.0023 0,-337.0023 -48.3625,-366.1734 -29.9388,-18.4239 -52.2009,-19.1915 -86.7455,-3.0705 -51.4331,24.565 -56.8067,44.5241 -56.8067,208.0354 0,161.9761 -3.8383,178.097 -39.9183,164.279 l -19.9591,-7.6765 -3.0706,-133.5727 c -2.303,-121.2901 -3.8384,-135.8756 -17.6563,-151.2287 -41.4536,-45.2919 -107.4722,-49.1303 -148.1582,-7.6768 -26.1002,26.1005 -32.2416,49.898 -32.2416,131.2697 0,36.8478 -3.0706,60.645 -7.6765,60.645 -4.606,0 -24.5651,-8.4441 -44.5242,-19.1912 -64.4834,-34.5448 -129.7345,-23.7975 -189.6119,30.7062 -16.1207,14.5855 -30.7062,26.868 -33.7768,26.868 -2.303,0 -16.1209,-6.9089 -29.1711,-15.3531 -32.2418,-19.1915 -33.0094,-41.4535 -3.0707,-82.1395 38.3829,-53.7361 102.0986,-86.7455 166.582,-86.7455 33.0092,0 35.3122,-1.5352 59.8775,-61.4127 35.3122,-85.2101 157.3699,-137.411 248.7214,-105.1692 31.474,10.7472 33.777,10.7472 55.2715,-6.9089 39.1505,-33.777 92.119,-52.2009 142.7845,-51.4331 57.5743,0.7676 99.0279,20.7266 147.3904,71.3922 l 36.08,36.8475 61.4126,-0.7676 c 36.8478,0 69.0895,3.8384 80.6044,9.9796 41.4536,21.4945 85.9777,64.4834 105.9368,102.0986 l 20.7269,39.9184 0.7676,193.4499 c 0.7676,105.937 3.8384,196.5207 6.1413,200.3591 3.0706,5.3735 21.4943,2.3029 49.1302,-8.4444 84.4425,-30.7062 185.0057,-18.4237 251.7921,32.2418 46.8272,35.3122 72.1598,78.3012 72.1598,122.0577 0,42.989 -13.0501,67.554 -70.6246,130.5021 -96.725,105.9368 -135.8756,170.4202 -208.8032,343.1434 -49.1301,118.2196 -95.9572,194.9853 -160.4407,262.5394 -49.8977,52.9685 -123.5931,109.7751 -142.0168,109.7751 -4.6059,0 -9.9797,-5.3735 -12.2825,-12.2825 z"
       id="path2" />
    <path
       d="m 1216.297,1738.0558 c -182.7029,-56.0391 -246.41859,-77.5336 -256.39815,-88.2809 -31.474,-31.4741 0.76766,-92.1191 45.29185,-85.2101 25.3328,3.8383 201.8944,72.1599 257.1658,99.7956 30.7063,15.3533 34.5446,19.9591 34.5446,42.9889 0,41.4536 -19.959,49.1302 -80.6041,30.7065 z"
       id="path3" />
    <path
       d="m 1398.2322,1522.3436 c -12.2826,-13.8179 -59.1099,-67.554 -102.8665,-119.7549 -66.0186,-79.0688 -79.0687,-99.0279 -79.0687,-120.5223 0,-42.989 45.2917,-63.7157 82.1393,-38.383 26.1005,18.4239 178.8646,241.8126 178.8646,261.7717 0,17.6561 -25.3326,41.4536 -44.5241,41.4536 -6.1412,0 -21.4945,-11.515 -34.5446,-24.5651 z"
       id="path4" />
    <path
       d="m 1658.4685,1414.1036 c -9.212,-6.909 -17.6561,-35.3122 -28.4034,-97.4926 -8.4442,-48.3626 -18.4237,-107.4722 -22.2621,-130.5021 -13.0501,-71.3922 -9.9796,-105.1692 9.2119,-118.2193 22.2621,-16.1209 46.8272,-15.3533 67.5541,1.5352 13.8177,11.5149 17.656,25.3328 23.7974,97.4926 3.8382,46.8273 10.7472,109.7754 14.5855,140.4816 10.7472,76.766 9.9796,83.6749 -7.6767,101.331 -17.6561,17.6561 -37.6152,19.9591 -56.8067,5.3736 z"
       id="path5" />
  </g>
  <!-- "hands" text -->
  <path
     d="m 56.64,28.424 v -6.672 q 0,-1.8 -0.144,-2.616 -0.144,-0.816 -0.696,-0.816 -0.48,0 -0.48,0.648 v 9.456 q 0,0.264 -1.392,0.432 Q 52.536,29 51.072,29 49.608,29 49.224,28.88 48.84,28.736 48.84,28.424 V 11.792 q 0,-0.504 1.392,-1.008 1.392,-0.504 2.928,-0.504 1.608,0 2.04,0.6 0.144,0.192 0.144,0.408 v 3.528 l -0.264,1.656 h 0.168 q 0.336,-0.504 1.056,-0.888 1.344,-0.72 2.928,-0.72 2.28,0 3.072,1.464 0.816,1.44 0.816,4.704 v 7.392 q 0,0.264 -1.416,0.432 Q 60.312,29 58.848,29 57.408,29 57.024,28.88 56.64,28.736 56.64,28.424 Z m 12.720022,0.792 q -2.184,0 -3.432,-1.032 -0.504,-0.432 -0.888,-1.272 -0.36,-0.84 -0.36,-1.968 0,-1.128 0.528,-1.968 0.552,-0.84 1.32,-1.296 0.768,-0.456 1.8,-0.744 1.56,-0.408 3.432,-0.408 h 0.792 q 0,-0.984 -0.672,-1.392 -0.288,-0.168 -0.888,-0.168 -0.576,0 -1.416,0.312 -0.816,0.312 -1.368,0.648 -0.552,0.312 -0.744,0.312 -0.432,0 -1.176,-1.128 -0.744,-1.152 -0.744,-2.088 0,-0.312 0.888,-0.816 0.888,-0.504 2.496,-0.912 1.632,-0.432 3.168,-0.432 1.536,0 2.64,0.264 1.128,0.24 1.824,0.6 0.72,0.36 1.2,0.96 0.504,0.6 0.744,1.08 0.264,0.48 0.384,1.248 0.168,0.888 0.168,2.184 v 7.224 q 0,0.264 -1.296,0.432 -1.272,0.144 -2.544,0.144 -1.248,0 -1.632,-0.072 -0.36,-0.072 -0.432,-0.168 -0.072,-0.096 -0.12,-0.336 l -0.192,-1.368 h -0.192 q -0.6,2.16 -3.288,2.16 z m 3.216,-3.984 v -2.808 q -0.624,0 -1.008,0.528 -0.384,0.528 -0.384,1.2 0,1.584 0.72,1.584 0.312,0 0.48,-0.144 0.192,-0.168 0.192,-0.36 z m 22.631989,-4.2 v 7.392 q 0,0.264 -1.368,0.432 -1.368,0.144 -2.832,0.144 -1.44,0 -1.872,-0.12 -0.408,-0.144 -0.408,-0.456 v -7.632 q 0,-1.08 -0.096,-1.416 -0.072,-0.336 -0.144,-0.6 -0.168,-0.456 -0.6,-0.456 -0.672,0 -0.672,0.648 v 9.456 q 0,0.264 -1.368,0.432 -1.344,0.144 -2.808,0.144 -1.44,0 -1.872,-0.12 -0.432,-0.144 -0.432,-0.456 V 16.592 q 0,-0.504 1.368,-1.008 1.392,-0.504 2.928,-0.504 1.536,0 1.728,0.888 l 0.216,1.056 h 0.168 q 0.696,-1.392 2.4,-1.944 0.696,-0.216 1.536,-0.216 2.424,0 3.264,1.464 0.864,1.44 0.864,4.704 z m 6.192009,8.184 q -0.888,0 -1.656001,-0.264 -0.768,-0.264 -1.272,-0.648 -0.48,-0.384 -0.84,-1.032 -0.36,-0.648 -0.552,-1.224 -0.192,-0.6 -0.288,-1.464 -0.144,-1.272 -0.144,-2.904 0,-3.336 1.224,-5.064 1.224,-1.752 3.360001,-1.752 2.184,0 3.168,1.032 0.216,0.24 0.336,0.576 h 0.192 l -0.288,-1.656 v -3 q 0,-0.528 1.344,-1.032 1.344,-0.504 2.904,-0.504 1.632,0 2.088,0.624 0.168,0.24 0.168,0.48 v 17.04 q 0,0.264 -1.344,0.432 -1.32,0.144 -2.568,0.144 -1.224,0 -1.584,-0.072 -0.336,-0.096 -0.432,-0.192 -0.072,-0.096 -0.096,-0.312 l -0.192,-1.368 h -0.192 q -0.216,0.84 -0.864,1.416 -0.816,0.744 -2.472,0.744 z m 2.688,-3.504 q 0.384,0 0.576,-0.48 v -6.408 q 0,-0.24 -0.264,-0.36 -0.24,-0.144 -0.432,-0.144 -0.816,0 -0.816,3.744 0,1.992 0.216,2.832 0.24,0.816 0.72,0.816 z m 15.26399,3.504 q -3.984,0 -5.832,-0.768 -0.936,-0.408 -0.936,-0.792 0,-0.984 0.576,-2.304 0.576,-1.32 1.008,-1.32 0.24,0 1.608,0.528 1.392,0.528 2.328,0.528 0.96,0 1.248,-0.12 0.312,-0.12 0.312,-0.456 0,-0.36 -0.48,-0.552 -0.48,-0.216 -1.2,-0.288 -0.72,-0.072 -1.56,-0.288 -0.816,-0.216 -1.536,-0.552 -0.72,-0.336 -1.2,-1.104 -0.48,-0.792 -0.48,-1.68 0,-0.912 0.048,-1.344 0.048,-0.456 0.384,-1.248 0.36,-0.816 0.984,-1.32 0.648,-0.504 1.968,-0.912 1.344,-0.408 3,-0.408 1.656,0 2.76,0.12 1.128,0.096 1.752,0.264 0.648,0.168 1.056,0.384 0.696,0.36 0.696,0.792 0,0.936 -0.672,2.16 -0.672,1.224 -1.08,1.224 -0.384,0 -1.704,-0.408 -1.32,-0.432 -1.944,-0.432 -1.008,0 -1.008,0.576 0,0.36 0.672,0.552 0.696,0.168 1.656,0.36 0.96,0.192 1.92,0.552 0.984,0.336 1.656,1.248 0.696,0.912 0.696,2.304 0,4.704 -6.696,4.704 z"
     id="text5"
     style="font-size:24px;font-family:'Titan One', cursive"
     aria-label="hands" />
</svg>
